<svg id="Layer_1" data-name="Layer 1" xmlns="http://www.w3.org/2000/svg" viewBox="0 0 741.33 208"><defs><style>.cls-1{fill:#3086b3;}.cls-2{fill:#2a3376;}.cls-3{fill:#293376;}.cls-4{fill:none;}</style></defs><title>BSCS Science Learning</title><circle class="cls-1" cx="96.2" cy="142.94" r="5.06"/><circle class="cls-1" cx="83.54" cy="147.29" r="5.69"/><circle class="cls-1" cx="68.51" cy="148.08" r="6.39"/><circle class="cls-1" cx="52.04" cy="144.28" r="7.18"/><circle class="cls-1" cx="35.43" cy="135.07" r="8.07"/><circle class="cls-1" cx="20.34" cy="119.98" r="9.07"/><circle class="cls-1" cx="66.65" cy="130.46" r="5.06"/><circle class="cls-1" cx="54.62" cy="124.59" r="5.69"/><circle class="cls-1" cx="43.44" cy="114.52" r="6.39"/><circle class="cls-1" cx="34.48" cy="100.19" r="7.18"/><circle class="cls-1" cx="29.24" cy="81.93" r="8.07"/><circle class="cls-1" cx="29.24" cy="60.59" r="9.07"/><circle class="cls-1" cx="54.58" cy="100.75" r="5.06"/><circle class="cls-1" cx="50.22" cy="88.09" r="5.69"/><circle class="cls-1" cx="49.43" cy="73.06" r="6.39"/><circle class="cls-1" cx="53.24" cy="56.59" r="7.18"/><circle class="cls-1" cx="62.44" cy="39.98" r="8.07"/><circle class="cls-1" cx="77.53" cy="24.89" r="9.07"/><circle class="cls-1" cx="67.06" cy="71.2" r="5.06"/><circle class="cls-1" cx="72.93" cy="59.17" r="5.69"/><circle class="cls-1" cx="82.99" cy="47.99" r="6.39"/><circle class="cls-1" cx="97.33" cy="39.03" r="7.18"/><circle class="cls-1" cx="115.59" cy="33.79" r="8.07"/><circle class="cls-1" cx="136.93" cy="33.79" r="9.07"/><circle class="cls-1" cx="96.77" cy="59.13" r="5.06"/><circle class="cls-1" cx="109.43" cy="54.77" r="5.69"/><circle class="cls-1" cx="124.45" cy="53.98" r="6.39"/><circle class="cls-1" cx="140.92" cy="57.79" r="7.18"/><circle class="cls-1" cx="157.54" cy="66.99" r="8.07"/><circle class="cls-1" cx="172.63" cy="82.08" r="9.07"/><circle class="cls-1" cx="126.32" cy="71.61" r="5.06"/><circle class="cls-1" cx="138.35" cy="77.47" r="5.69"/><circle class="cls-1" cx="149.53" cy="87.54" r="6.39"/><circle class="cls-1" cx="158.49" cy="101.88" r="7.18"/><circle class="cls-1" cx="163.72" cy="120.13" r="8.07"/><circle class="cls-1" cx="163.72" cy="141.47" r="9.07"/><circle class="cls-1" cx="138.39" cy="101.32" r="5.06"/><circle class="cls-1" cx="142.75" cy="113.98" r="5.69"/><circle class="cls-1" cx="143.53" cy="129" r="6.39"/><circle class="cls-1" cx="139.73" cy="145.47" r="7.18"/><circle class="cls-1" cx="130.52" cy="162.09" r="8.07"/><circle class="cls-1" cx="115.43" cy="177.18" r="9.07"/><circle class="cls-1" cx="125.91" cy="130.86" r="5.06"/><circle class="cls-1" cx="120.04" cy="142.9" r="5.69"/><circle class="cls-1" cx="109.97" cy="154.08" r="6.39"/><circle class="cls-1" cx="95.64" cy="163.04" r="7.18"/><circle class="cls-1" cx="77.38" cy="168.27" r="8.07"/><circle class="cls-1" cx="56.04" cy="168.27" r="9.07"/><path class="cls-1" d="M110.33,101h0a2.79,2.79,0,1,0-1.06-5.3h0a2.79,2.79,0,1,0-3-4.49h0a2.79,2.79,0,1,0-4.49-3h0a2.79,2.79,0,1,0-5.3-1h0a2.79,2.79,0,1,0-5.29,1h0a2.79,2.79,0,1,0-4.5,3h0a2.79,2.79,0,1,0-3,4.49h0a2.79,2.79,0,1,0-1,5.3h0a2.79,2.79,0,1,0,1,5.3h0a2.79,2.79,0,1,0,3,4.49h0a2.8,2.8,0,1,0,4.5,3h0a2.79,2.79,0,1,0,5.29,1.06h0a2.79,2.79,0,1,0,5.3-1.06h0a2.79,2.79,0,1,0,4.49-3h0a2.79,2.79,0,1,0,3-4.49h0a2.79,2.79,0,1,0,1.06-5.3Z"/><path class="cls-2" d="M211.89,199a11.37,11.37,0,0,1-4.76-3.54,8.4,8.4,0,0,1-1.73-4.74,1,1,0,0,1,.31-.72,1,1,0,0,1,.77-.31H209a1.31,1.31,0,0,1,1.29,1,6.2,6.2,0,0,0,2.67,3.75,10.67,10.67,0,0,0,6.28,1.58q4.4,0,6.57-1.55a5,5,0,0,0,2.17-4.3,4.06,4.06,0,0,0-1.06-2.89,8.76,8.76,0,0,0-3.15-2c-1.4-.57-3.49-1.27-6.29-2.1a31.38,31.38,0,0,1-6.33-2.43,9.38,9.38,0,0,1-3.55-3.18,8.86,8.86,0,0,1-1.19-4.79,8.66,8.66,0,0,1,1.5-5,10,10,0,0,1,4.35-3.46,16.31,16.31,0,0,1,6.72-1.27,15.43,15.43,0,0,1,6.91,1.42,11.35,11.35,0,0,1,4.37,3.57,8.19,8.19,0,0,1,1.6,4.32,1.06,1.06,0,0,1-1.08,1.09h-2.59a1.33,1.33,0,0,1-.78-.26,1.38,1.38,0,0,1-.51-.78,5.23,5.23,0,0,0-2.49-3.67,9.53,9.53,0,0,0-5.43-1.45,10,10,0,0,0-5.58,1.37,4.56,4.56,0,0,0-2.07,4.06,4.41,4.41,0,0,0,1,3,8.06,8.06,0,0,0,2.95,2,51.74,51.74,0,0,0,5.82,2,41.11,41.11,0,0,1,6.91,2.48,9.44,9.44,0,0,1,3.75,3.08A8.25,8.25,0,0,1,233,190a8.86,8.86,0,0,1-3.7,7.58q-3.71,2.72-10,2.71A18.69,18.69,0,0,1,211.89,199Z"/><path class="cls-2" d="M246.13,196.58q-3.58-3.75-3.85-10.26c0-.94-.05-2.45-.05-4.56s0-3.69.05-4.65q.25-6.53,3.85-10.27t10.48-3.75a17,17,0,0,1,7.81,1.63,11.55,11.55,0,0,1,6.62,9.9.9.9,0,0,1-.34.75,1.19,1.19,0,0,1-.8.29h-2.58a1.27,1.27,0,0,1-.83-.26,1.62,1.62,0,0,1-.47-.88c-.58-2.65-1.64-4.52-3.18-5.59a10.78,10.78,0,0,0-6.23-1.6q-9,0-9.36,10-.06,1.4-.06,4.29c0,1.93,0,3.4.06,4.4q.36,10,9.36,10a10.77,10.77,0,0,0,6.21-1.6q2.32-1.6,3.2-5.54a1.7,1.7,0,0,1,.47-.88,1.27,1.27,0,0,1,.83-.26h2.58a1.19,1.19,0,0,1,.8.29.92.92,0,0,1,.34.75,11.52,11.52,0,0,1-6.62,9.9,17,17,0,0,1-7.81,1.63Q249.73,200.33,246.13,196.58Z"/><path class="cls-2" d="M282.27,199.48a1.19,1.19,0,0,1-.31-.85V164.8a1.21,1.21,0,0,1,.31-.86,1.06,1.06,0,0,1,.82-.33h2.59a1.18,1.18,0,0,1,.88.31,1.17,1.17,0,0,1,.31.88v33.83a1.16,1.16,0,0,1-1.19,1.19h-2.59A1,1,0,0,1,282.27,199.48Z"/><path class="cls-2" d="M300.16,199.48a1.23,1.23,0,0,1-.31-.85V164.85a1.34,1.34,0,0,1,.31-.91,1.1,1.1,0,0,1,.83-.33h21.26a1.14,1.14,0,0,1,1.24,1.24v1.86a1.08,1.08,0,0,1-.33.83,1.34,1.34,0,0,1-.91.31H304.61v11.53h16.5a1.26,1.26,0,0,1,.91.34,1.24,1.24,0,0,1,.33.91v1.75a1.18,1.18,0,0,1-.33.86,1.26,1.26,0,0,1-.91.33h-16.5v12h18.06a1.24,1.24,0,0,1,.9.34,1.2,1.2,0,0,1,.34.9v1.87a1.11,1.11,0,0,1-.36.85,1.25,1.25,0,0,1-.88.34H301A1.07,1.07,0,0,1,300.16,199.48Z"/><path class="cls-2" d="M335.34,199.48a1.19,1.19,0,0,1-.31-.85V164.85a1.29,1.29,0,0,1,.31-.91,1.08,1.08,0,0,1,.83-.33h2.27a1.28,1.28,0,0,1,.78.2,4.24,4.24,0,0,1,.52.52L357.07,191V164.85a1.26,1.26,0,0,1,.33-.91,1.18,1.18,0,0,1,.86-.33h2.32a1.14,1.14,0,0,1,1.24,1.24v33.73a1.24,1.24,0,0,1-.33.87,1.1,1.1,0,0,1-.85.37h-2.33a1.26,1.26,0,0,1-1.24-.73l-17.33-26.43v26a1.17,1.17,0,0,1-.34.85,1.13,1.13,0,0,1-.85.34h-2.38A1.06,1.06,0,0,1,335.34,199.48Z"/><path class="cls-2" d="M377.21,196.58q-3.58-3.75-3.85-10.26c0-.94-.05-2.45-.05-4.56s0-3.69.05-4.65q.25-6.53,3.85-10.27t10.48-3.75a17,17,0,0,1,7.81,1.63,11.55,11.55,0,0,1,6.62,9.9.9.9,0,0,1-.34.75,1.19,1.19,0,0,1-.8.29H398.4a1.27,1.27,0,0,1-.83-.26,1.62,1.62,0,0,1-.47-.88c-.58-2.65-1.64-4.52-3.18-5.59a10.78,10.78,0,0,0-6.23-1.6q-9,0-9.36,10-.06,1.4-.06,4.29c0,1.93,0,3.4.06,4.4q.36,10,9.36,10a10.79,10.79,0,0,0,6.21-1.6q2.33-1.6,3.2-5.54a1.7,1.7,0,0,1,.47-.88,1.27,1.27,0,0,1,.83-.26H401a1.19,1.19,0,0,1,.8.29.92.92,0,0,1,.34.75,11.52,11.52,0,0,1-6.62,9.9,17,17,0,0,1-7.81,1.63Q380.81,200.33,377.21,196.58Z"/><path class="cls-2" d="M413.35,199.48a1.2,1.2,0,0,1-.32-.85V164.85a1.29,1.29,0,0,1,.32-.91,1.06,1.06,0,0,1,.82-.33h21.26a1.16,1.16,0,0,1,1.25,1.24v1.86a1.09,1.09,0,0,1-.34.83,1.34,1.34,0,0,1-.91.31H417.79v11.53H434.3a1.17,1.17,0,0,1,1.24,1.25v1.75a1.19,1.19,0,0,1-.34.86,1.23,1.23,0,0,1-.9.33H417.79v12h18.06a1.22,1.22,0,0,1,.9.34,1.2,1.2,0,0,1,.34.9v1.87a1.11,1.11,0,0,1-.36.85,1.25,1.25,0,0,1-.88.34H414.17A1,1,0,0,1,413.35,199.48Z"/><path class="cls-2" d="M465.13,199.48a1.2,1.2,0,0,1-.32-.85V164.8a1.22,1.22,0,0,1,.32-.86,1.06,1.06,0,0,1,.82-.33h2.59a1.1,1.1,0,0,1,.83.33,1.26,1.26,0,0,1,.31.86v30.67H487a1.2,1.2,0,0,1,.9.34,1.17,1.17,0,0,1,.34.85v2a1.09,1.09,0,0,1-.37.85,1.21,1.21,0,0,1-.87.34H466A1,1,0,0,1,465.13,199.48Z"/><path class="cls-2" d="M498,199.48a1.23,1.23,0,0,1-.31-.85V164.85a1.34,1.34,0,0,1,.31-.91,1.1,1.1,0,0,1,.83-.33h21.26a1.14,1.14,0,0,1,1.24,1.24v1.86a1.08,1.08,0,0,1-.33.83,1.34,1.34,0,0,1-.91.31H502.47v11.53H519a1.26,1.26,0,0,1,.91.34,1.25,1.25,0,0,1,.34.91v1.75a1.19,1.19,0,0,1-.34.86,1.26,1.26,0,0,1-.91.33h-16.5v12h18.06a1.24,1.24,0,0,1,.9.34,1.2,1.2,0,0,1,.34.9v1.87a1.11,1.11,0,0,1-.36.85,1.25,1.25,0,0,1-.88.34H498.85A1.07,1.07,0,0,1,498,199.48Z"/><path class="cls-2" d="M529.68,199.51a1,1,0,0,1-.31-.73l.1-.57,12.83-33.47a1.62,1.62,0,0,1,1.66-1.13h3.31a1.62,1.62,0,0,1,1.66,1.13l12.82,33.47.11.57a1,1,0,0,1-.34.73,1.1,1.1,0,0,1-.75.31h-2.43a1.25,1.25,0,0,1-.85-.29,1.36,1.36,0,0,1-.44-.59l-2.9-7.45H537l-2.85,7.45a1.36,1.36,0,0,1-1.29.88h-2.48A1,1,0,0,1,529.68,199.51Zm8.85-12.32H552.7l-7.09-18.57Z"/><path class="cls-2" d="M571.63,199.48a1.23,1.23,0,0,1-.31-.85V164.85a1.34,1.34,0,0,1,.31-.91,1.1,1.1,0,0,1,.83-.33h12.62q5.89,0,9.24,2.76t3.33,8a9.6,9.6,0,0,1-7.44,10l8,13.81a1.37,1.37,0,0,1,.16.57,1.06,1.06,0,0,1-1,1H595a1.82,1.82,0,0,1-1.22-.37,3.38,3.38,0,0,1-.8-1l-7.61-13.24h-9.2v13.45a1.12,1.12,0,0,1-.37.85,1.21,1.21,0,0,1-.88.34h-2.48A1.07,1.07,0,0,1,571.63,199.48Zm13.25-18.54q7.8,0,7.81-6.57t-7.81-6.57h-8.69v13.14Z"/><path class="cls-2" d="M609.34,199.48a1.23,1.23,0,0,1-.31-.85V164.85a1.34,1.34,0,0,1,.31-.91,1.1,1.1,0,0,1,.83-.33h2.28a1.26,1.26,0,0,1,.77.2,3.19,3.19,0,0,1,.52.52L631.07,191V164.85a1.22,1.22,0,0,1,.34-.91,1.16,1.16,0,0,1,.85-.33h2.33a1.16,1.16,0,0,1,1.24,1.24v33.73a1.21,1.21,0,0,1-.34.87,1.09,1.09,0,0,1-.85.37h-2.33a1.26,1.26,0,0,1-1.24-.73l-17.33-26.43v26a1.13,1.13,0,0,1-.34.85,1.12,1.12,0,0,1-.85.34h-2.38A1.07,1.07,0,0,1,609.34,199.48Z"/><path class="cls-2" d="M649.07,199.48a1.19,1.19,0,0,1-.31-.85V164.8a1.21,1.21,0,0,1,.31-.86,1.08,1.08,0,0,1,.83-.33h2.59a1.08,1.08,0,0,1,1.19,1.19v33.83a1.17,1.17,0,0,1-.34.85,1.15,1.15,0,0,1-.85.34H649.9A1.06,1.06,0,0,1,649.07,199.48Z"/><path class="cls-2" d="M667,199.48a1.19,1.19,0,0,1-.31-.85V164.85a1.29,1.29,0,0,1,.31-.91,1.08,1.08,0,0,1,.83-.33h2.27a1.28,1.28,0,0,1,.78.2,4.24,4.24,0,0,1,.52.52L688.7,191V164.85a1.26,1.26,0,0,1,.33-.91,1.18,1.18,0,0,1,.86-.33h2.32a1.14,1.14,0,0,1,1.24,1.24v33.73a1.24,1.24,0,0,1-.33.87,1.11,1.11,0,0,1-.86.37h-2.32a1.26,1.26,0,0,1-1.24-.73l-17.33-26.43v26a1.17,1.17,0,0,1-.34.85,1.13,1.13,0,0,1-.85.34H667.8A1.06,1.06,0,0,1,667,199.48Z"/><path class="cls-2" d="M709,196.61q-3.72-3.72-4-10.09c0-1,0-2.65,0-4.86s0-3.86,0-4.86q.21-6.31,4-10t10.47-3.7a16.46,16.46,0,0,1,7.71,1.65,13.15,13.15,0,0,1,4.76,4,8.45,8.45,0,0,1,1.71,4.27v.1a.87.87,0,0,1-.34.7,1.12,1.12,0,0,1-.75.29h-2.9a1,1,0,0,1-.69-.21,1.84,1.84,0,0,1-.44-.78,8.4,8.4,0,0,0-3.06-4.08,9.78,9.78,0,0,0-6-1.66,9.43,9.43,0,0,0-6.82,2.38q-2.49,2.39-2.64,7.35c0,1,0,2.53,0,4.6s0,3.57,0,4.6q.15,5,2.64,7.4a9.43,9.43,0,0,0,6.82,2.38,10,10,0,0,0,7-2.41q2.64-2.4,2.64-7.21v-2.23h-7.92a1.11,1.11,0,0,1-.85-.36A1.21,1.21,0,0,1,720,183V181.4a1.23,1.23,0,0,1,.34-.88,1.11,1.11,0,0,1,.85-.36h11.59a1.17,1.17,0,0,1,1.24,1.24v4.92a15.23,15.23,0,0,1-1.73,7.37,11.85,11.85,0,0,1-5.05,4.91,16.54,16.54,0,0,1-7.81,1.73Q712.75,200.33,709,196.61Z"/><path class="cls-3" d="M454,76.4q-8.21-9.57-26.45-14.08l-19.72-4.78Q390.11,53,385.53,48.8t-4.59-12.3q0-8.87,6.64-13.34t19.61-4.48q15.9,0,24.5,6.22a26.65,26.65,0,0,1,9,12.05c.15.39.38.62.66.62C451.12,37.78,454,18.9,454,18.9c0-1.83.2-3-3-3.92a163.28,163.28,0,0,0-22.83-4.91,158.32,158.32,0,0,0-24-1.91Q380.93,8.16,368,18.9t-12.93,30q0,16,7.81,24.64t27,13.52l19.61,4.78c10.07,2.49,16.7,5.18,19.94,8.06l0,0q4.83,4.35,4.83,12.18,0,9.9-7.12,15t-20.69,5.13q-16.78,0-26.25-7.21t-12.1-21.82h-.26c-6,0-9.21,7-10,12.28-.83,4.3-.83,13.93-.83,13.93,0,2.72,0,4.59,4.35,6a158.87,158.87,0,0,0,21.41,5.19,151.54,151.54,0,0,0,25.47,2.17q26.65,0,40.31-10.21t13.66-29.86c0-.72-.11-1.34-.13-2C461.77,90.52,459.15,82.37,454,76.4Z"/><path class="cls-3" d="M727.09,76.4q-8.21-9.57-26.45-14.08l-19.71-4.78Q663.16,53,658.58,48.8T654,36.5q0-8.87,6.64-13.34t19.61-4.48q15.91,0,24.5,6.22a26.65,26.65,0,0,1,9,12.05c.16.39.38.62.66.62,9.73.21,12.65-18.67,12.65-18.67,0-1.83.2-3-3-3.92a163.28,163.28,0,0,0-22.83-4.91,158.32,158.32,0,0,0-24-1.91Q654,8.16,641.06,18.9t-12.93,30q0,16,7.81,24.64t27,13.52l19.62,4.78q15.09,3.73,19.93,8.06l0,0q4.83,4.35,4.83,12.18,0,9.9-7.12,15t-20.69,5.13q-16.78,0-26.25-7.21t-12.1-21.82H641c-6,0-9.21,7-10,12.28-.83,4.3-.83,13.93-.83,13.93,0,2.72,0,4.59,4.35,6a158.64,158.64,0,0,0,21.42,5.19,151.36,151.36,0,0,0,25.47,2.17q26.64,0,40.3-10.21t13.66-29.86c0-.72-.11-1.34-.13-2C734.83,90.52,732.2,82.37,727.09,76.4Z"/><path class="cls-3" d="M323.52,80.1q-10.87-8.88-31.23-10.76,16.83-1.78,25.39-8.79t8.56-18.94q0-16.6-12.39-24.85T276.68,8.5H206v1.56c0,4.41,1,7.49,2.93,9.3a6.61,6.61,0,0,0,2,1.32,4.49,4.49,0,0,1,2.71,4.21v9.57l.06,0,0,43.36v38.76l-.09,0v9.57a4.49,4.49,0,0,1-2.71,4.21,6.8,6.8,0,0,0-2,1.33c-1.93,1.81-2.91,4.9-2.91,9.29v1.57h65.66q32.43,0,47.6-9.42T334.4,103.7A32.66,32.66,0,0,0,332.85,94,28.37,28.37,0,0,0,323.52,80.1ZM248.67,19.36h11.89q16,0,23.32,5.3t7.3,17q0,11.58-7.5,17.19t-23.12,5.61H248.67Zm38.59,105.43q-8.37,6.83-25.59,6.82h-13V75.18h13q17.13,0,25.54,7.08a21.76,21.76,0,0,1,5.45,7.3,32,32,0,0,1,3,14.14Q295.62,118,287.26,124.79Z"/><path class="cls-4" d="M523.23,41.19l-.15.47c0-.16.12-.3.17-.45Z"/><path class="cls-3" d="M605.2,103.26H597a10.27,10.27,0,0,0-9.53,6.79q-3.63,9.6-9.88,15-8.3,7.21-21.47,7.21-19.32,0-28.59-13.91-4.77-7.14-7.06-18.26a120.91,120.91,0,0,1-2.21-24.59c0-13,1.43-23.69,4.24-32.15.18-.58.38-1.14.59-1.7l.15-.47,0,0c5-12.8,18.21-22,33.79-22,17.37,0,31.86,11.38,35.21,26.51,13.17-.54,11.19-26.13,11.19-26.13a.41.41,0,0,0-.26-.38A168.24,168.24,0,0,0,576.7,11a113,113,0,0,0-24.3-2.79q-33.27,0-52.55,18.13T480.58,75.53a77.09,77.09,0,0,0,4,25.25h0a58.19,58.19,0,0,0,15.3,23.9q19.27,18.13,52.55,18.13,22.65,0,36.06-9.74,12.81-9.28,18.11-28A1.44,1.44,0,0,0,605.2,103.26Z"/></svg>
